<mxfile host="app.diagrams.net" modified="2022-05-30T20:13:53.831Z" agent="5.0 (Macintosh; Intel Mac OS X 10_15_7) AppleWebKit/537.36 (KHTML, like Gecko) Chrome/102.0.5005.61 Safari/537.36" etag="FUI6gzBmsDqrxDW2N6-K" version="18.1.2" type="github">
  <diagram id="sntJZrc3fSRZ9pPTpiDj" name="Page-1">
    <mxGraphModel dx="946" dy="589" grid="1" gridSize="10" guides="1" tooltips="1" connect="1" arrows="1" fold="1" page="1" pageScale="1" pageWidth="827" pageHeight="1169" math="0" shadow="0">
      <root>
        <mxCell id="0" />
        <mxCell id="1" parent="0" />
        <mxCell id="l7tDhvgIpXxOFHX7TSzN-1" value="&lt;font style=&quot;font-size: 18px;&quot;&gt;&lt;b&gt;Входная матрица&lt;/b&gt;&lt;/font&gt;" style="rounded=0;whiteSpace=wrap;html=1;" parent="1" vertex="1">
          <mxGeometry x="290" y="100" width="190" height="60" as="geometry" />
        </mxCell>
        <mxCell id="l7tDhvgIpXxOFHX7TSzN-3" value="" style="endArrow=blockThin;html=1;rounded=0;endSize=6;strokeWidth=4;fillColor=#39434D;endFill=1;" parent="1" edge="1">
          <mxGeometry width="50" height="50" relative="1" as="geometry">
            <mxPoint x="384.5" y="160" as="sourcePoint" />
            <mxPoint x="384.5" y="197" as="targetPoint" />
          </mxGeometry>
        </mxCell>
        <mxCell id="l7tDhvgIpXxOFHX7TSzN-5" value="&lt;b&gt;GAT/GCN Layer&lt;/b&gt;" style="rounded=1;whiteSpace=wrap;html=1;fontSize=18;fillColor=#e1d5e7;strokeColor=#9673a6;" parent="1" vertex="1">
          <mxGeometry x="290" y="200" width="190" height="60" as="geometry" />
        </mxCell>
        <mxCell id="l7tDhvgIpXxOFHX7TSzN-7" value="" style="endArrow=blockThin;html=1;rounded=0;endSize=6;strokeWidth=4;fillColor=#39434D;endFill=1;" parent="1" edge="1">
          <mxGeometry width="50" height="50" relative="1" as="geometry">
            <mxPoint x="384.5" y="260" as="sourcePoint" />
            <mxPoint x="384.5" y="297" as="targetPoint" />
          </mxGeometry>
        </mxCell>
        <mxCell id="l7tDhvgIpXxOFHX7TSzN-8" value="&lt;b&gt;ReLU&lt;/b&gt;" style="rounded=1;whiteSpace=wrap;html=1;fontSize=18;" parent="1" vertex="1">
          <mxGeometry x="290" y="300" width="190" height="60" as="geometry" />
        </mxCell>
        <mxCell id="l7tDhvgIpXxOFHX7TSzN-9" value="" style="endArrow=blockThin;html=1;rounded=0;endSize=6;strokeWidth=4;fillColor=#39434D;endFill=1;" parent="1" edge="1">
          <mxGeometry width="50" height="50" relative="1" as="geometry">
            <mxPoint x="384.5" y="360" as="sourcePoint" />
            <mxPoint x="384.5" y="397" as="targetPoint" />
          </mxGeometry>
        </mxCell>
        <mxCell id="l7tDhvgIpXxOFHX7TSzN-10" value="&lt;b&gt;MaxPool&lt;br&gt;&lt;/b&gt;" style="rounded=1;whiteSpace=wrap;html=1;fontSize=18;" parent="1" vertex="1">
          <mxGeometry x="290" y="400" width="190" height="60" as="geometry" />
        </mxCell>
        <mxCell id="l7tDhvgIpXxOFHX7TSzN-11" value="" style="endArrow=blockThin;html=1;rounded=0;endSize=6;strokeWidth=4;fillColor=#39434D;endFill=1;" parent="1" edge="1">
          <mxGeometry width="50" height="50" relative="1" as="geometry">
            <mxPoint x="384.5" y="460" as="sourcePoint" />
            <mxPoint x="384.5" y="497" as="targetPoint" />
          </mxGeometry>
        </mxCell>
        <mxCell id="l7tDhvgIpXxOFHX7TSzN-13" value="&lt;b&gt;0/1&lt;/b&gt;" style="rounded=0;whiteSpace=wrap;html=1;fontSize=18;" parent="1" vertex="1">
          <mxGeometry x="360" y="500" width="50" height="50" as="geometry" />
        </mxCell>
        <mxCell id="l7tDhvgIpXxOFHX7TSzN-14" value="" style="shape=curlyBracket;whiteSpace=wrap;html=1;rounded=1;fontSize=18;" parent="1" vertex="1">
          <mxGeometry x="260" y="210" width="20" height="140" as="geometry" />
        </mxCell>
        <mxCell id="l7tDhvgIpXxOFHX7TSzN-15" value="&lt;span style=&quot;font-weight: normal;&quot;&gt;3&lt;/span&gt;" style="text;strokeColor=none;fillColor=none;html=1;fontSize=24;fontStyle=1;verticalAlign=middle;align=center;" parent="1" vertex="1">
          <mxGeometry x="240" y="260" width="20" height="40" as="geometry" />
        </mxCell>
        <mxCell id="l7tDhvgIpXxOFHX7TSzN-17" value="&lt;font style=&quot;font-size: 12px;&quot;&gt;Количество&lt;br&gt;вершин&lt;/font&gt;" style="text;html=1;strokeColor=none;fillColor=none;align=center;verticalAlign=middle;whiteSpace=wrap;rounded=0;fontSize=14;rotation=-90;" parent="1" vertex="1">
          <mxGeometry x="230" y="115" width="80" height="30" as="geometry" />
        </mxCell>
        <mxCell id="l7tDhvgIpXxOFHX7TSzN-18" value="&lt;span style=&quot;font-size: 12px;&quot;&gt;Размер признаков&lt;/span&gt;" style="text;html=1;strokeColor=none;fillColor=none;align=center;verticalAlign=middle;whiteSpace=wrap;rounded=0;fontSize=14;rotation=0;" parent="1" vertex="1">
          <mxGeometry x="345" y="60" width="80" height="30" as="geometry" />
        </mxCell>
      </root>
    </mxGraphModel>
  </diagram>
</mxfile>
